<svg xmlns="http://www.w3.org/2000/svg" width="1000" height="1000" viewBox="0 0 1000 1000">
  <g>
    <g>
      <circle cx="500.25" cy="234.031" r="24" fill="#fff"/>
      <circle cx="500.25" cy="766.032" r="24" fill="#fff"/>
      <circle cx="431.404" cy="243.094" r="24" fill="#fff"/>
      <circle cx="569.096" cy="756.968" r="24" fill="#fff"/>
      <circle cx="367.25" cy="269.668" r="24" fill="#fff"/>
      <circle cx="633.25" cy="730.395" r="24" fill="#fff"/>
      <circle cx="312.159" cy="311.94" r="24" fill="#fff"/>
      <circle cx="688.341" cy="688.122" r="24" fill="#fff"/>
      <circle cx="269.887" cy="367.031" r="24" fill="#fff"/>
      <circle cx="730.613" cy="633.032" r="24" fill="#fff"/>
      <circle cx="243.313" cy="431.185" r="24" fill="#fff"/>
      <circle cx="757.187" cy="568.877" r="24" fill="#fff"/>
      <circle cx="234.249" cy="500.031" r="24" fill="#fff"/>
      <circle cx="766.251" cy="500.031" r="24" fill="#fff"/>
      <circle cx="243.313" cy="568.877" r="24" fill="#fff"/>
      <circle cx="757.187" cy="431.185" r="24" fill="#fff"/>
      <circle cx="269.887" cy="633.032" r="24" fill="#fff"/>
      <circle cx="730.613" cy="367.031" r="24" fill="#fff"/>
      <circle cx="312.159" cy="688.122" r="24" fill="#fff"/>
      <circle cx="688.341" cy="311.94" r="24" fill="#fff"/>
      <circle cx="367.25" cy="730.395" r="24" fill="#fff"/>
      <circle cx="633.25" cy="269.668" r="24" fill="#fff"/>
      <circle cx="431.404" cy="756.968" r="24" fill="#fff"/>
      <circle cx="569.096" cy="243.094" r="24" fill="#fff"/>
    </g>
    <g>
      <circle cx="500.25" cy="234.031" r="24" fill="#fff"/>
      <circle cx="500.25" cy="766.032" r="24" fill="#fff"/>
      <circle cx="431.404" cy="243.094" r="24" fill="#fff"/>
      <circle cx="569.096" cy="756.968" r="24" fill="#fff"/>
      <circle cx="367.25" cy="269.668" r="24" fill="#fff"/>
      <circle cx="633.25" cy="730.395" r="24" fill="#fff"/>
      <circle cx="312.159" cy="311.94" r="24" fill="#fff"/>
      <circle cx="688.341" cy="688.122" r="24" fill="#fff"/>
      <circle cx="269.887" cy="367.031" r="24" fill="#fff"/>
      <circle cx="730.613" cy="633.032" r="24" fill="#fff"/>
      <circle cx="243.313" cy="431.185" r="24" fill="#fff"/>
      <circle cx="757.187" cy="568.877" r="24" fill="#fff"/>
      <circle cx="234.249" cy="500.031" r="24" fill="#fff"/>
      <circle cx="766.251" cy="500.031" r="24" fill="#fff"/>
      <circle cx="243.313" cy="568.877" r="24" fill="#fff"/>
      <circle cx="757.187" cy="431.185" r="24" fill="#fff"/>
      <circle cx="269.887" cy="633.032" r="24" fill="#fff"/>
      <circle cx="730.613" cy="367.031" r="24" fill="#fff"/>
      <circle cx="312.159" cy="688.122" r="24" fill="#fff"/>
      <circle cx="688.341" cy="311.94" r="24" fill="#fff"/>
      <circle cx="367.25" cy="730.395" r="24" fill="#fff"/>
      <circle cx="633.25" cy="269.668" r="24" fill="#fff"/>
      <circle cx="431.404" cy="756.968" r="24" fill="#fff"/>
      <circle cx="569.096" cy="243.094" r="24" fill="#fff"/>
    </g>
  </g>
</svg>
