<svg xmlns="http://www.w3.org/2000/svg" width="3000" height="1000" viewBox="0 0 3000 1000">
  <g>
    <g>
      <path d="M817.728,386.744h0a8.593,8.593,0,0,1,8.1,5.723L894.743,587.05l63.893-194.334a8.616,8.616,0,0,1,8.251-5.924h0a8.617,8.617,0,0,1,8.121,5.933L1038.671,587.1l68.795-194.781a8.212,8.212,0,0,1,7.743-5.477h0a8.212,8.212,0,0,1,7.72,11.01l-76.9,212.165a8,8,0,0,1-7.522,5.274h-.845a8,8,0,0,1-7.581-5.444L965.978,419.72,901.891,609.339a8.753,8.753,0,0,1-8.291,5.95h0a8.751,8.751,0,0,1-8.238-5.8L809.639,398.235A8.592,8.592,0,0,1,817.728,386.744Z" fill="#de4d55"/>
      <path d="M2544.449,386.744h0a8.592,8.592,0,0,1,8.1,5.723l68.916,194.583,63.893-194.334a8.616,8.616,0,0,1,8.251-5.924h0a8.617,8.617,0,0,1,8.121,5.933L2765.392,587.1l68.8-194.781a8.212,8.212,0,0,1,7.743-5.477h0a8.212,8.212,0,0,1,7.721,11.01l-76.9,212.165a8,8,0,0,1-7.522,5.274h-.845a8,8,0,0,1-7.58-5.444L2692.7,419.72l-64.087,189.619a8.752,8.752,0,0,1-8.291,5.95h0a8.751,8.751,0,0,1-8.238-5.8L2536.36,398.235A8.592,8.592,0,0,1,2544.449,386.744Z" fill="#de4d55"/>
      <path d="M1264.36,384.17c-62.19,0-112.606,52.117-112.606,116.406s50.416,116.406,112.606,116.406,112.606-52.116,112.606-116.406S1326.55,384.17,1264.36,384.17Zm0,216.271c-52.815,0-95.629-45.159-95.629-100.865s42.814-100.865,95.629-100.865,95.629,45.159,95.629,100.865S1317.175,600.441,1264.36,600.441Z" fill="#de4d55"/>
      <path d="M2391.539,384.17c-62.19,0-112.606,52.117-112.606,116.406s50.416,116.406,112.606,116.406,112.606-52.116,112.606-116.406S2453.73,384.17,2391.539,384.17Zm0,216.271c-52.814,0-95.629-45.159-95.629-100.865s42.815-100.865,95.629-100.865,95.63,45.159,95.63,100.865S2444.354,600.441,2391.539,600.441Z" fill="#de4d55"/>
      <path d="M1605.25,601.183l-63.495-82.578h0s64.535-4.61,64.5-64.559c-.044-68.879-81.332-66.18-81.332-66.18l-82.759.129a10,10,0,0,0-9.985,10V605.667a8.4,8.4,0,0,0,8.4,8.4h0a8.4,8.4,0,0,0,8.4-8.4V519.836h69.405a5.9,5.9,0,0,1,4.642,2.261L1592.6,611a8,8,0,0,0,6.306,3.073h0A8.007,8.007,0,0,0,1605.25,601.183Zm-156.417-98.018V402.991h77.527s62.805,0,62.805,49.587c0,47.412-53.782,50.587-53.782,50.587h-86.55Z" fill="#de4d55"/>
      <path d="M1670.2,396.243V605.689a8.382,8.382,0,0,0,8.382,8.382h0a8.382,8.382,0,0,0,8.382-8.382V560.143a10,10,0,0,1,2.95-7.093l53.21-52.89,89.542,110.687a8.721,8.721,0,0,0,6.771,3.224h0a8.722,8.722,0,0,0,6.751-14.245L1755.12,488.16l84.819-86.126a8.274,8.274,0,0,0-5.779-14.194h0a8.27,8.27,0,0,0-5.89,2.464L1687,533.528V396.243a8.4,8.4,0,0,0-8.4-8.4h0A8.4,8.4,0,0,0,1670.2,396.243Z" fill="#de4d55"/>
      <path d="M1897.121,398.856V605.562a8.51,8.51,0,0,0,8.51,8.509h0a8.51,8.51,0,0,0,8.509-8.509V514.24a4,4,0,0,1,4-4H2034.7a7.2,7.2,0,0,0,7.2-7.2h0a7.2,7.2,0,0,0-7.2-7.2H1914.14V403.989h134.795a7.2,7.2,0,0,0,7.2-7.2v-1.524a7.2,7.2,0,0,0-7.189-7.2l-140.808-.209A11,11,0,0,0,1897.121,398.856Z" fill="#de4d55"/>
      <path d="M2108.143,396.387V605.012a8,8,0,0,0,8,8h133.43a7.486,7.486,0,0,0,7.486-7.486h0a7.486,7.486,0,0,0-7.486-7.486H2125V396.387a8.428,8.428,0,0,0-8.546-8.427h0A8.427,8.427,0,0,0,2108.143,396.387Z" fill="#de4d55"/>
      <path d="M817.728,386.744h0a8.593,8.593,0,0,1,8.1,5.723L894.743,587.05l63.893-194.334a8.616,8.616,0,0,1,8.251-5.924h0a8.617,8.617,0,0,1,8.121,5.933L1038.671,587.1l68.795-194.781a8.212,8.212,0,0,1,7.743-5.477h0a8.212,8.212,0,0,1,7.72,11.01l-76.9,212.165a8,8,0,0,1-7.522,5.274h-.845a8,8,0,0,1-7.581-5.444L965.978,419.72,901.891,609.339a8.753,8.753,0,0,1-8.291,5.95h0a8.751,8.751,0,0,1-8.238-5.8L809.639,398.235A8.592,8.592,0,0,1,817.728,386.744Z" fill="#de4d55"/>
      <path d="M2544.449,386.744h0a8.592,8.592,0,0,1,8.1,5.723l68.916,194.583,63.893-194.334a8.616,8.616,0,0,1,8.251-5.924h0a8.617,8.617,0,0,1,8.121,5.933L2765.392,587.1l68.8-194.781a8.212,8.212,0,0,1,7.743-5.477h0a8.212,8.212,0,0,1,7.721,11.01l-76.9,212.165a8,8,0,0,1-7.522,5.274h-.845a8,8,0,0,1-7.58-5.444L2692.7,419.72l-64.087,189.619a8.752,8.752,0,0,1-8.291,5.95h0a8.751,8.751,0,0,1-8.238-5.8L2536.36,398.235A8.592,8.592,0,0,1,2544.449,386.744Z" fill="#de4d55"/>
      <path d="M1264.36,384.17c-62.19,0-112.606,52.117-112.606,116.406s50.416,116.406,112.606,116.406,112.606-52.116,112.606-116.406S1326.55,384.17,1264.36,384.17Zm0,216.271c-52.815,0-95.629-45.159-95.629-100.865s42.814-100.865,95.629-100.865,95.629,45.159,95.629,100.865S1317.175,600.441,1264.36,600.441Z" fill="#de4d55"/>
      <path d="M2391.539,384.17c-62.19,0-112.606,52.117-112.606,116.406s50.416,116.406,112.606,116.406,112.606-52.116,112.606-116.406S2453.73,384.17,2391.539,384.17Zm0,216.271c-52.814,0-95.629-45.159-95.629-100.865s42.815-100.865,95.629-100.865,95.63,45.159,95.63,100.865S2444.354,600.441,2391.539,600.441Z" fill="#de4d55"/>
      <path d="M1605.25,601.183l-63.495-82.578h0s64.535-4.61,64.5-64.559c-.044-68.879-81.332-66.18-81.332-66.18l-82.759.129a10,10,0,0,0-9.985,10V605.667a8.4,8.4,0,0,0,8.4,8.4h0a8.4,8.4,0,0,0,8.4-8.4V519.836h69.405a5.9,5.9,0,0,1,4.642,2.261L1592.6,611a8,8,0,0,0,6.306,3.073h0A8.007,8.007,0,0,0,1605.25,601.183Zm-156.417-98.018V402.991h77.527s62.805,0,62.805,49.587c0,47.412-53.782,50.587-53.782,50.587h-86.55Z" fill="#de4d55"/>
      <path d="M1670.2,396.243V605.689a8.382,8.382,0,0,0,8.382,8.382h0a8.382,8.382,0,0,0,8.382-8.382V560.143a10,10,0,0,1,2.95-7.093l53.21-52.89,89.542,110.687a8.721,8.721,0,0,0,6.771,3.224h0a8.722,8.722,0,0,0,6.751-14.245L1755.12,488.16l84.819-86.126a8.274,8.274,0,0,0-5.779-14.194h0a8.27,8.27,0,0,0-5.89,2.464L1687,533.528V396.243a8.4,8.4,0,0,0-8.4-8.4h0A8.4,8.4,0,0,0,1670.2,396.243Z" fill="#de4d55"/>
      <path d="M1897.121,398.856V605.562a8.51,8.51,0,0,0,8.51,8.509h0a8.51,8.51,0,0,0,8.509-8.509V514.24a4,4,0,0,1,4-4H2034.7a7.2,7.2,0,0,0,7.2-7.2h0a7.2,7.2,0,0,0-7.2-7.2H1914.14V403.989h134.795a7.2,7.2,0,0,0,7.2-7.2v-1.524a7.2,7.2,0,0,0-7.189-7.2l-140.808-.209A11,11,0,0,0,1897.121,398.856Z" fill="#de4d55"/>
      <path d="M2108.143,396.387V605.012a8,8,0,0,0,8,8h133.43a7.486,7.486,0,0,0,7.486-7.486h0a7.486,7.486,0,0,0-7.486-7.486H2125V396.387a8.428,8.428,0,0,0-8.546-8.427h0A8.427,8.427,0,0,0,2108.143,396.387Z" fill="#de4d55"/>
    </g>
    <g>
      <circle cx="436.999" cy="232.99" r="24" fill="#de4d55"/>
      <circle cx="436.999" cy="764.991" r="24" fill="#de4d55"/>
      <circle cx="368.153" cy="242.054" r="24" fill="#de4d55"/>
      <circle cx="505.845" cy="755.927" r="24" fill="#de4d55"/>
      <circle cx="303.999" cy="268.627" r="24" fill="#de4d55"/>
      <circle cx="569.999" cy="729.354" r="24" fill="#de4d55"/>
      <circle cx="248.908" cy="310.9" r="24" fill="#de4d55"/>
      <circle cx="625.09" cy="687.081" r="24" fill="#de4d55"/>
      <circle cx="206.636" cy="365.99" r="24" fill="#de4d55"/>
      <circle cx="667.362" cy="631.991" r="24" fill="#de4d55"/>
      <circle cx="180.062" cy="430.144" r="24" fill="#de4d55"/>
      <circle cx="693.936" cy="567.836" r="24" fill="#de4d55"/>
      <circle cx="170.999" cy="498.99" r="24" fill="#de4d55"/>
      <circle cx="703" cy="498.99" r="24" fill="#de4d55"/>
      <circle cx="180.062" cy="567.836" r="24" fill="#de4d55"/>
      <circle cx="693.936" cy="430.144" r="24" fill="#de4d55"/>
      <circle cx="206.636" cy="631.991" r="24" fill="#de4d55"/>
      <circle cx="667.362" cy="365.99" r="24" fill="#de4d55"/>
      <circle cx="248.908" cy="687.081" r="24" fill="#de4d55"/>
      <circle cx="625.09" cy="310.9" r="24" fill="#de4d55"/>
      <circle cx="303.999" cy="729.354" r="24" fill="#de4d55"/>
      <circle cx="569.999" cy="268.627" r="24" fill="#de4d55"/>
      <circle cx="368.153" cy="755.927" r="24" fill="#de4d55"/>
      <circle cx="505.845" cy="242.054" r="24" fill="#de4d55"/>
    </g>
  </g>
</svg>
